# xmcd
#
# Track frame offsets:
#	150
#	16288
#	33247
#	52093
#	68786
#	86298
#	106925
#	122325
#	137282
#	155826
#	172856
#
# Disc length: 2557 seconds
#
# Revision: 0
# Processed by: cddbd v1.5.2PL0 Copyright (c) Steve Scherf et al.
# Submitted via: EasyCDDAExtractor 11.0.0.1
#
DISCID=7e09fb0b
DTITLE=ΚΑΖΟΥΛΗΣ ΒΑΣΙΛΗΣ - ΡΑΝΤΕΒΟΥ ΣΤΗΝ ΕΘΝΙΚΗ
DYEAR=2001
DGENRE=ΕΝΤΕΧΝΑ
TTITLE0=ΡΑΝΤΕΒΟΥ ΣΤΗΝ ΕΘΝΙΚΗ
TTITLE1=ΓΙΑ ΝΑ ΠΕΤΑΞΕΙΣ
TTITLE2=ΠΩΣ ΕΡΩΤΕΥΕΤΑΙ
TTITLE3=ΕΙΣΑΙ ΠΑΝΤΑ ΕΔΩ
TTITLE4=ΣΤΗΝ ΑΦΝΩΣΤΗ
TTITLE5=ΠΟΡΤΡΑΙΤΟ
TTITLE6=ΣΤΑ ΔΕΚΑΕΝΝΙΑ
TTITLE7=ΕΧΕΙΣ ΚΑΝΕΙ ΛΑΘΟΣ
TTITLE8=ΚΑΛΟΚΑΙΡΙΝΟ
TTITLE9=ΤΣΑΚΙΣΜΑΤΑ
TTITLE10=ΚΑΡΠΑΣΙΑ
EXTD=
EXTT0=
EXTT1=
EXTT2=
EXTT3=
EXTT4=
EXTT5=
EXTT6=
EXTT7=
EXTT8=
EXTT9=
EXTT10=
PLAYORDER=
